<svg xmlns="http://www.w3.org/2000/svg" viewBox="0 0 24 24" fill="currentColor">
  <path d="M12 2c-1.1 0-2 .9-2 2 0 .7.4 1.3.9 1.7-.5.3-1 .7-1.3 1.2-.6.9-.8 2.1-.5 3.2.3.9.9 1.7 1.6 2.2-.1.5-.2 1.1-.2 1.7 0 1.1.3 2.2.8 3.1l-1.3 3.9h1l.8-2.6h4.4l.8 2.6h1l-1.3-3.9c.5-.9.8-2 .8-3.1 0-.6-.1-1.2-.2-1.7.7-.5 1.3-1.3 1.6-2.2.3-1.1.1-2.3-.5-3.2-.3-.5-.8-.9-1.3-1.2.5-.4.9-1 .9-1.7 0-1.1-.9-2-2-2z"/>
  <path d="M10.2 12.4c.5.6 1.1 1 1.8 1.3.7-.3 1.3-.7 1.8-1.3 0 .1.1.2.1.3.2.6.5 1.2 1 1.7-.4.8-.6 1.6-.6 2.5 0 .7.2 1.4.5 2h-5.6c.3-.6.5-1.3.5-2 0-.9-.2-1.7-.6-2.5.5-.5.8-1.1 1-1.7 0-.1.1-.2.1-.3z"/>
</svg>
