<svg width="1200" height="720" viewBox="0 0 1200 720" fill="none" xmlns="http://www.w3.org/2000/svg">
  <rect width="1200" height="720" rx="32" fill="#0B1220"/>
  <rect x="32" y="32" width="1136" height="656" rx="24" fill="url(#bg)"/>
  <rect x="72" y="90" width="240" height="540" rx="20" fill="#111827" opacity="0.96"/>
  <rect x="344" y="90" width="784" height="540" rx="20" fill="#0F172A" opacity="0.96"/>
  <rect x="104" y="132" width="176" height="18" rx="9" fill="#334155"/>
  <rect x="104" y="176" width="132" height="14" rx="7" fill="#1D4ED8"/>
  <rect x="104" y="212" width="164" height="14" rx="7" fill="#334155"/>
  <rect x="104" y="248" width="144" height="14" rx="7" fill="#334155"/>
  <rect x="104" y="284" width="120" height="14" rx="7" fill="#334155"/>
  <rect x="392" y="132" width="180" height="24" rx="12" fill="#1D4ED8"/>
  <rect x="392" y="186" width="688" height="220" rx="18" fill="#111827"/>
  <rect x="424" y="222" width="280" height="16" rx="8" fill="#475569"/>
  <rect x="424" y="258" width="420" height="16" rx="8" fill="#334155"/>
  <rect x="424" y="294" width="360" height="16" rx="8" fill="#334155"/>
  <rect x="392" y="444" width="220" height="136" rx="18" fill="#111827"/>
  <rect x="650" y="444" width="220" height="136" rx="18" fill="#111827"/>
  <rect x="908" y="444" width="172" height="136" rx="18" fill="#111827"/>
  <text x="392" y="520" fill="#E2E8F0" font-family="Arial, sans-serif" font-size="54" font-weight="700">SqlKit</text>
  <text x="392" y="564" fill="#94A3B8" font-family="Arial, sans-serif" font-size="28">AI-powered SQL desktop client for modern databases</text>
  <defs>
    <linearGradient id="bg" x1="32" y1="32" x2="1168" y2="688" gradientUnits="userSpaceOnUse">
      <stop stop-color="#111827"/>
      <stop offset="1" stop-color="#1E3A8A"/>
    </linearGradient>
  </defs>
</svg>
